Coordinates
version=1
nRows=27
nColumns=12
inDegrees=yes

Units are S.I. units (second, meters, Newtons, ...)
Angles are in degrees

endheader
time	SC_y	SC_z	SC_x	AC_y	AC_z	AC_x	GH_y	GH_z	GH_yy	EL_x	PS_y
       0.0              -43.37          22.35          28.03          35.83         -1.313         -0.362          7.766          30.91          134.7          52.83          117.9
   0.01899              -43.37          22.35          28.03          35.83         -1.315         -0.363           7.76          30.92          134.6          52.83          117.9
   0.03799              -43.37          22.35          28.04          35.84         -1.317        -0.3641          7.754          30.93          134.6          52.83          117.9
   0.05698              -43.37          22.35          28.04          35.84         -1.319        -0.3653          7.747          30.94          134.6          52.83          117.9
   0.07598              -43.37          22.35          28.04          35.84         -1.321        -0.3666          7.741          30.95          134.6          52.83          117.9
   0.09497              -43.36          22.34          28.04          35.85         -1.324        -0.3679          7.733          30.96          134.6          52.83          117.9
     0.114              -43.36          22.34          28.04          35.85         -1.326        -0.3694          7.725          30.97          134.6          52.82          117.8
     0.133              -43.36          22.34          28.04          35.85         -1.329        -0.3709          7.717          30.98          134.6          52.82          117.8
     0.152              -43.36          22.34          28.05          35.86         -1.332        -0.3725          7.708          30.99          134.6          52.82          117.8
    0.1709              -43.35          22.34          28.05          35.86         -1.335        -0.3743          7.699          31.01          134.6          52.82          117.8
    0.1899              -43.35          22.33          28.05          35.87         -1.339        -0.3762          7.688          31.02          134.6          52.82          117.8
    0.2089              -43.35          22.33          28.05          35.87         -1.343        -0.3782          7.677          31.04          134.6          52.82          117.7
    0.2279              -43.35          22.33          28.06          35.88         -1.346        -0.3804          7.665          31.05          134.5          52.81          117.7
    0.2469              -43.34          22.33          28.06          35.88         -1.351        -0.3828          7.652          31.07          134.5          52.81          117.7
    0.2659              -43.34          22.32          28.06          35.89         -1.355        -0.3854          7.639          31.09          134.5          52.81          117.6
    0.2849              -43.34          22.32          28.07           35.9         -1.361        -0.3882          7.623          31.11          134.5          52.81          117.6
    0.3039              -43.33          22.32          28.07          35.91         -1.366        -0.3912          7.607          31.13          134.5           52.8          117.6
    0.3229              -43.33          22.31          28.08          35.91         -1.372        -0.3945          7.589          31.16          134.4           52.8          117.5
    0.3419              -43.32          22.31          28.08          35.92         -1.379        -0.3981          7.569          31.19          134.4           52.8          117.5
    0.3609              -43.32          22.31          28.09          35.93         -1.386         -0.402          7.548          31.22          134.4          52.79          117.4
    0.3799              -43.31           22.3          28.09          35.94         -1.394        -0.4064          7.525          31.25          134.4          52.79          117.4
    0.3989               -43.3           22.3           28.1          35.96         -1.402        -0.4111          7.499          31.28          134.3          52.78          117.3
    0.4179               -43.3          22.29          28.11          35.97         -1.412        -0.4164           7.47          31.32          134.3          52.78          117.3
    0.4369              -43.29          22.28          28.11          35.98         -1.422        -0.4222          7.438          31.37          134.3          52.77          117.2
    0.4559              -43.28          22.28          28.12           36.0         -1.434        -0.4287          7.403          31.42          134.2          52.77          117.1
    0.4749              -43.27          22.27          28.13          36.02         -1.447        -0.4359          7.364          31.47          134.2          52.76          117.0
    0.4938              -43.26          22.26          28.14          36.04         -1.462         -0.444           7.32          31.53          134.1          52.75          116.9
